<mxfile host="app.diagrams.net" modified="2023-10-04T07:35:56.006Z" agent="Mozilla/5.0 (Windows NT 10.0; Win64; x64) AppleWebKit/537.36 (KHTML, like Gecko) Chrome/116.0.0.0 Safari/537.36 OPR/102.0.0.0" etag="lbEsZWFRFvjXjMWRhcgt" version="22.0.2" type="device">
  <diagram name="Страница — 1" id="KrVtwM0wDjbZ_Bi7phv7">
    <mxGraphModel dx="1506" dy="912" grid="0" gridSize="10" guides="1" tooltips="1" connect="1" arrows="1" fold="1" page="0" pageScale="1" pageWidth="827" pageHeight="1169" math="0" shadow="0">
      <root>
        <mxCell id="0" />
        <mxCell id="1" parent="0" />
        <mxCell id="7z2uK8pHWrHxvsxm8yLZ-1" value="Users" style="shape=table;startSize=30;container=1;collapsible=1;childLayout=tableLayout;fixedRows=1;rowLines=0;fontStyle=1;align=center;resizeLast=1;html=1;" parent="1" vertex="1">
          <mxGeometry x="951" y="926" width="180" height="239" as="geometry" />
        </mxCell>
        <mxCell id="7z2uK8pHWrHxvsxm8yLZ-2" value="" style="shape=tableRow;horizontal=0;startSize=0;swimlaneHead=0;swimlaneBody=0;fillColor=none;collapsible=0;dropTarget=0;points=[[0,0.5],[1,0.5]];portConstraint=eastwest;top=0;left=0;right=0;bottom=1;" parent="7z2uK8pHWrHxvsxm8yLZ-1" vertex="1">
          <mxGeometry y="30" width="180" height="30" as="geometry" />
        </mxCell>
        <mxCell id="7z2uK8pHWrHxvsxm8yLZ-3" value="PK" style="shape=partialRectangle;connectable=0;fillColor=none;top=0;left=0;bottom=0;right=0;fontStyle=1;overflow=hidden;whiteSpace=wrap;html=1;" parent="7z2uK8pHWrHxvsxm8yLZ-2" vertex="1">
          <mxGeometry width="30" height="30" as="geometry">
            <mxRectangle width="30" height="30" as="alternateBounds" />
          </mxGeometry>
        </mxCell>
        <mxCell id="7z2uK8pHWrHxvsxm8yLZ-4" value="UserID" style="shape=partialRectangle;connectable=0;fillColor=none;top=0;left=0;bottom=0;right=0;align=left;spacingLeft=6;fontStyle=5;overflow=hidden;whiteSpace=wrap;html=1;" parent="7z2uK8pHWrHxvsxm8yLZ-2" vertex="1">
          <mxGeometry x="30" width="150" height="30" as="geometry">
            <mxRectangle width="150" height="30" as="alternateBounds" />
          </mxGeometry>
        </mxCell>
        <mxCell id="7z2uK8pHWrHxvsxm8yLZ-5" value="" style="shape=tableRow;horizontal=0;startSize=0;swimlaneHead=0;swimlaneBody=0;fillColor=none;collapsible=0;dropTarget=0;points=[[0,0.5],[1,0.5]];portConstraint=eastwest;top=0;left=0;right=0;bottom=0;" parent="7z2uK8pHWrHxvsxm8yLZ-1" vertex="1">
          <mxGeometry y="60" width="180" height="24" as="geometry" />
        </mxCell>
        <mxCell id="7z2uK8pHWrHxvsxm8yLZ-6" value="" style="shape=partialRectangle;connectable=0;fillColor=none;top=0;left=0;bottom=0;right=0;editable=1;overflow=hidden;whiteSpace=wrap;html=1;" parent="7z2uK8pHWrHxvsxm8yLZ-5" vertex="1">
          <mxGeometry width="30" height="24" as="geometry">
            <mxRectangle width="30" height="24" as="alternateBounds" />
          </mxGeometry>
        </mxCell>
        <mxCell id="7z2uK8pHWrHxvsxm8yLZ-7" value="FirstName" style="shape=partialRectangle;connectable=0;fillColor=none;top=0;left=0;bottom=0;right=0;align=left;spacingLeft=6;overflow=hidden;whiteSpace=wrap;html=1;" parent="7z2uK8pHWrHxvsxm8yLZ-5" vertex="1">
          <mxGeometry x="30" width="150" height="24" as="geometry">
            <mxRectangle width="150" height="24" as="alternateBounds" />
          </mxGeometry>
        </mxCell>
        <mxCell id="7z2uK8pHWrHxvsxm8yLZ-8" value="" style="shape=tableRow;horizontal=0;startSize=0;swimlaneHead=0;swimlaneBody=0;fillColor=none;collapsible=0;dropTarget=0;points=[[0,0.5],[1,0.5]];portConstraint=eastwest;top=0;left=0;right=0;bottom=0;" parent="7z2uK8pHWrHxvsxm8yLZ-1" vertex="1">
          <mxGeometry y="84" width="180" height="35" as="geometry" />
        </mxCell>
        <mxCell id="7z2uK8pHWrHxvsxm8yLZ-9" value="" style="shape=partialRectangle;connectable=0;fillColor=none;top=0;left=0;bottom=0;right=0;editable=1;overflow=hidden;whiteSpace=wrap;html=1;" parent="7z2uK8pHWrHxvsxm8yLZ-8" vertex="1">
          <mxGeometry width="30" height="35" as="geometry">
            <mxRectangle width="30" height="35" as="alternateBounds" />
          </mxGeometry>
        </mxCell>
        <mxCell id="7z2uK8pHWrHxvsxm8yLZ-10" value="LastName" style="shape=partialRectangle;connectable=0;fillColor=none;top=0;left=0;bottom=0;right=0;align=left;spacingLeft=6;overflow=hidden;whiteSpace=wrap;html=1;" parent="7z2uK8pHWrHxvsxm8yLZ-8" vertex="1">
          <mxGeometry x="30" width="150" height="35" as="geometry">
            <mxRectangle width="150" height="35" as="alternateBounds" />
          </mxGeometry>
        </mxCell>
        <mxCell id="7z2uK8pHWrHxvsxm8yLZ-11" value="" style="shape=tableRow;horizontal=0;startSize=0;swimlaneHead=0;swimlaneBody=0;fillColor=none;collapsible=0;dropTarget=0;points=[[0,0.5],[1,0.5]];portConstraint=eastwest;top=0;left=0;right=0;bottom=0;" parent="7z2uK8pHWrHxvsxm8yLZ-1" vertex="1">
          <mxGeometry y="119" width="180" height="30" as="geometry" />
        </mxCell>
        <mxCell id="7z2uK8pHWrHxvsxm8yLZ-12" value="" style="shape=partialRectangle;connectable=0;fillColor=none;top=0;left=0;bottom=0;right=0;editable=1;overflow=hidden;whiteSpace=wrap;html=1;" parent="7z2uK8pHWrHxvsxm8yLZ-11" vertex="1">
          <mxGeometry width="30" height="30" as="geometry">
            <mxRectangle width="30" height="30" as="alternateBounds" />
          </mxGeometry>
        </mxCell>
        <mxCell id="7z2uK8pHWrHxvsxm8yLZ-13" value="UserName" style="shape=partialRectangle;connectable=0;fillColor=none;top=0;left=0;bottom=0;right=0;align=left;spacingLeft=6;overflow=hidden;whiteSpace=wrap;html=1;" parent="7z2uK8pHWrHxvsxm8yLZ-11" vertex="1">
          <mxGeometry x="30" width="150" height="30" as="geometry">
            <mxRectangle width="150" height="30" as="alternateBounds" />
          </mxGeometry>
        </mxCell>
        <mxCell id="7z2uK8pHWrHxvsxm8yLZ-14" value="" style="shape=tableRow;horizontal=0;startSize=0;swimlaneHead=0;swimlaneBody=0;fillColor=none;collapsible=0;dropTarget=0;points=[[0,0.5],[1,0.5]];portConstraint=eastwest;top=0;left=0;right=0;bottom=0;" parent="7z2uK8pHWrHxvsxm8yLZ-1" vertex="1">
          <mxGeometry y="149" width="180" height="30" as="geometry" />
        </mxCell>
        <mxCell id="7z2uK8pHWrHxvsxm8yLZ-15" value="" style="shape=partialRectangle;connectable=0;fillColor=none;top=0;left=0;bottom=0;right=0;editable=1;overflow=hidden;whiteSpace=wrap;html=1;" parent="7z2uK8pHWrHxvsxm8yLZ-14" vertex="1">
          <mxGeometry width="30" height="30" as="geometry">
            <mxRectangle width="30" height="30" as="alternateBounds" />
          </mxGeometry>
        </mxCell>
        <mxCell id="7z2uK8pHWrHxvsxm8yLZ-16" value="Email" style="shape=partialRectangle;connectable=0;fillColor=none;top=0;left=0;bottom=0;right=0;align=left;spacingLeft=6;overflow=hidden;whiteSpace=wrap;html=1;" parent="7z2uK8pHWrHxvsxm8yLZ-14" vertex="1">
          <mxGeometry x="30" width="150" height="30" as="geometry">
            <mxRectangle width="150" height="30" as="alternateBounds" />
          </mxGeometry>
        </mxCell>
        <mxCell id="7z2uK8pHWrHxvsxm8yLZ-17" value="" style="shape=tableRow;horizontal=0;startSize=0;swimlaneHead=0;swimlaneBody=0;fillColor=none;collapsible=0;dropTarget=0;points=[[0,0.5],[1,0.5]];portConstraint=eastwest;top=0;left=0;right=0;bottom=0;" parent="7z2uK8pHWrHxvsxm8yLZ-1" vertex="1">
          <mxGeometry y="179" width="180" height="30" as="geometry" />
        </mxCell>
        <mxCell id="7z2uK8pHWrHxvsxm8yLZ-18" value="" style="shape=partialRectangle;connectable=0;fillColor=none;top=0;left=0;bottom=0;right=0;editable=1;overflow=hidden;whiteSpace=wrap;html=1;" parent="7z2uK8pHWrHxvsxm8yLZ-17" vertex="1">
          <mxGeometry width="30" height="30" as="geometry">
            <mxRectangle width="30" height="30" as="alternateBounds" />
          </mxGeometry>
        </mxCell>
        <mxCell id="7z2uK8pHWrHxvsxm8yLZ-19" value="Role" style="shape=partialRectangle;connectable=0;fillColor=none;top=0;left=0;bottom=0;right=0;align=left;spacingLeft=6;overflow=hidden;whiteSpace=wrap;html=1;" parent="7z2uK8pHWrHxvsxm8yLZ-17" vertex="1">
          <mxGeometry x="30" width="150" height="30" as="geometry">
            <mxRectangle width="150" height="30" as="alternateBounds" />
          </mxGeometry>
        </mxCell>
        <mxCell id="7z2uK8pHWrHxvsxm8yLZ-20" value="" style="shape=tableRow;horizontal=0;startSize=0;swimlaneHead=0;swimlaneBody=0;fillColor=none;collapsible=0;dropTarget=0;points=[[0,0.5],[1,0.5]];portConstraint=eastwest;top=0;left=0;right=0;bottom=0;" parent="7z2uK8pHWrHxvsxm8yLZ-1" vertex="1">
          <mxGeometry y="209" width="180" height="30" as="geometry" />
        </mxCell>
        <mxCell id="7z2uK8pHWrHxvsxm8yLZ-21" value="" style="shape=partialRectangle;connectable=0;fillColor=none;top=0;left=0;bottom=0;right=0;editable=1;overflow=hidden;whiteSpace=wrap;html=1;" parent="7z2uK8pHWrHxvsxm8yLZ-20" vertex="1">
          <mxGeometry width="30" height="30" as="geometry">
            <mxRectangle width="30" height="30" as="alternateBounds" />
          </mxGeometry>
        </mxCell>
        <mxCell id="7z2uK8pHWrHxvsxm8yLZ-22" value="UserFullName" style="shape=partialRectangle;connectable=0;fillColor=none;top=0;left=0;bottom=0;right=0;align=left;spacingLeft=6;overflow=hidden;whiteSpace=wrap;html=1;" parent="7z2uK8pHWrHxvsxm8yLZ-20" vertex="1">
          <mxGeometry x="30" width="150" height="30" as="geometry">
            <mxRectangle width="150" height="30" as="alternateBounds" />
          </mxGeometry>
        </mxCell>
        <mxCell id="7z2uK8pHWrHxvsxm8yLZ-23" value="KnowledgeBase" style="shape=table;startSize=30;container=1;collapsible=1;childLayout=tableLayout;fixedRows=1;rowLines=0;fontStyle=1;align=center;resizeLast=1;html=1;" parent="1" vertex="1">
          <mxGeometry x="1507" y="695" width="180" height="209" as="geometry" />
        </mxCell>
        <mxCell id="7z2uK8pHWrHxvsxm8yLZ-24" value="" style="shape=tableRow;horizontal=0;startSize=0;swimlaneHead=0;swimlaneBody=0;fillColor=none;collapsible=0;dropTarget=0;points=[[0,0.5],[1,0.5]];portConstraint=eastwest;top=0;left=0;right=0;bottom=1;" parent="7z2uK8pHWrHxvsxm8yLZ-23" vertex="1">
          <mxGeometry y="30" width="180" height="30" as="geometry" />
        </mxCell>
        <mxCell id="7z2uK8pHWrHxvsxm8yLZ-25" value="PK" style="shape=partialRectangle;connectable=0;fillColor=none;top=0;left=0;bottom=0;right=0;fontStyle=1;overflow=hidden;whiteSpace=wrap;html=1;" parent="7z2uK8pHWrHxvsxm8yLZ-24" vertex="1">
          <mxGeometry width="30" height="30" as="geometry">
            <mxRectangle width="30" height="30" as="alternateBounds" />
          </mxGeometry>
        </mxCell>
        <mxCell id="7z2uK8pHWrHxvsxm8yLZ-26" value="ArticleID" style="shape=partialRectangle;connectable=0;fillColor=none;top=0;left=0;bottom=0;right=0;align=left;spacingLeft=6;fontStyle=5;overflow=hidden;whiteSpace=wrap;html=1;" parent="7z2uK8pHWrHxvsxm8yLZ-24" vertex="1">
          <mxGeometry x="30" width="150" height="30" as="geometry">
            <mxRectangle width="150" height="30" as="alternateBounds" />
          </mxGeometry>
        </mxCell>
        <mxCell id="7z2uK8pHWrHxvsxm8yLZ-27" value="" style="shape=tableRow;horizontal=0;startSize=0;swimlaneHead=0;swimlaneBody=0;fillColor=none;collapsible=0;dropTarget=0;points=[[0,0.5],[1,0.5]];portConstraint=eastwest;top=0;left=0;right=0;bottom=0;" parent="7z2uK8pHWrHxvsxm8yLZ-23" vertex="1">
          <mxGeometry y="60" width="180" height="24" as="geometry" />
        </mxCell>
        <mxCell id="7z2uK8pHWrHxvsxm8yLZ-28" value="" style="shape=partialRectangle;connectable=0;fillColor=none;top=0;left=0;bottom=0;right=0;editable=1;overflow=hidden;whiteSpace=wrap;html=1;" parent="7z2uK8pHWrHxvsxm8yLZ-27" vertex="1">
          <mxGeometry width="30" height="24" as="geometry">
            <mxRectangle width="30" height="24" as="alternateBounds" />
          </mxGeometry>
        </mxCell>
        <mxCell id="7z2uK8pHWrHxvsxm8yLZ-29" value="Title" style="shape=partialRectangle;connectable=0;fillColor=none;top=0;left=0;bottom=0;right=0;align=left;spacingLeft=6;overflow=hidden;whiteSpace=wrap;html=1;" parent="7z2uK8pHWrHxvsxm8yLZ-27" vertex="1">
          <mxGeometry x="30" width="150" height="24" as="geometry">
            <mxRectangle width="150" height="24" as="alternateBounds" />
          </mxGeometry>
        </mxCell>
        <mxCell id="7z2uK8pHWrHxvsxm8yLZ-30" value="" style="shape=tableRow;horizontal=0;startSize=0;swimlaneHead=0;swimlaneBody=0;fillColor=none;collapsible=0;dropTarget=0;points=[[0,0.5],[1,0.5]];portConstraint=eastwest;top=0;left=0;right=0;bottom=0;" parent="7z2uK8pHWrHxvsxm8yLZ-23" vertex="1">
          <mxGeometry y="84" width="180" height="35" as="geometry" />
        </mxCell>
        <mxCell id="7z2uK8pHWrHxvsxm8yLZ-31" value="" style="shape=partialRectangle;connectable=0;fillColor=none;top=0;left=0;bottom=0;right=0;editable=1;overflow=hidden;whiteSpace=wrap;html=1;" parent="7z2uK8pHWrHxvsxm8yLZ-30" vertex="1">
          <mxGeometry width="30" height="35" as="geometry">
            <mxRectangle width="30" height="35" as="alternateBounds" />
          </mxGeometry>
        </mxCell>
        <mxCell id="7z2uK8pHWrHxvsxm8yLZ-32" value="Content" style="shape=partialRectangle;connectable=0;fillColor=none;top=0;left=0;bottom=0;right=0;align=left;spacingLeft=6;overflow=hidden;whiteSpace=wrap;html=1;" parent="7z2uK8pHWrHxvsxm8yLZ-30" vertex="1">
          <mxGeometry x="30" width="150" height="35" as="geometry">
            <mxRectangle width="150" height="35" as="alternateBounds" />
          </mxGeometry>
        </mxCell>
        <mxCell id="7z2uK8pHWrHxvsxm8yLZ-33" value="" style="shape=tableRow;horizontal=0;startSize=0;swimlaneHead=0;swimlaneBody=0;fillColor=none;collapsible=0;dropTarget=0;points=[[0,0.5],[1,0.5]];portConstraint=eastwest;top=0;left=0;right=0;bottom=0;" parent="7z2uK8pHWrHxvsxm8yLZ-23" vertex="1">
          <mxGeometry y="119" width="180" height="30" as="geometry" />
        </mxCell>
        <mxCell id="7z2uK8pHWrHxvsxm8yLZ-34" value="" style="shape=partialRectangle;connectable=0;fillColor=none;top=0;left=0;bottom=0;right=0;editable=1;overflow=hidden;whiteSpace=wrap;html=1;" parent="7z2uK8pHWrHxvsxm8yLZ-33" vertex="1">
          <mxGeometry width="30" height="30" as="geometry">
            <mxRectangle width="30" height="30" as="alternateBounds" />
          </mxGeometry>
        </mxCell>
        <mxCell id="7z2uK8pHWrHxvsxm8yLZ-35" value="Category" style="shape=partialRectangle;connectable=0;fillColor=none;top=0;left=0;bottom=0;right=0;align=left;spacingLeft=6;overflow=hidden;whiteSpace=wrap;html=1;" parent="7z2uK8pHWrHxvsxm8yLZ-33" vertex="1">
          <mxGeometry x="30" width="150" height="30" as="geometry">
            <mxRectangle width="150" height="30" as="alternateBounds" />
          </mxGeometry>
        </mxCell>
        <mxCell id="7z2uK8pHWrHxvsxm8yLZ-36" value="" style="shape=tableRow;horizontal=0;startSize=0;swimlaneHead=0;swimlaneBody=0;fillColor=none;collapsible=0;dropTarget=0;points=[[0,0.5],[1,0.5]];portConstraint=eastwest;top=0;left=0;right=0;bottom=0;" parent="7z2uK8pHWrHxvsxm8yLZ-23" vertex="1">
          <mxGeometry y="149" width="180" height="30" as="geometry" />
        </mxCell>
        <mxCell id="7z2uK8pHWrHxvsxm8yLZ-37" value="" style="shape=partialRectangle;connectable=0;fillColor=none;top=0;left=0;bottom=0;right=0;editable=1;overflow=hidden;whiteSpace=wrap;html=1;" parent="7z2uK8pHWrHxvsxm8yLZ-36" vertex="1">
          <mxGeometry width="30" height="30" as="geometry">
            <mxRectangle width="30" height="30" as="alternateBounds" />
          </mxGeometry>
        </mxCell>
        <mxCell id="7z2uK8pHWrHxvsxm8yLZ-38" value="CreatedAt" style="shape=partialRectangle;connectable=0;fillColor=none;top=0;left=0;bottom=0;right=0;align=left;spacingLeft=6;overflow=hidden;whiteSpace=wrap;html=1;" parent="7z2uK8pHWrHxvsxm8yLZ-36" vertex="1">
          <mxGeometry x="30" width="150" height="30" as="geometry">
            <mxRectangle width="150" height="30" as="alternateBounds" />
          </mxGeometry>
        </mxCell>
        <mxCell id="7z2uK8pHWrHxvsxm8yLZ-39" value="" style="shape=tableRow;horizontal=0;startSize=0;swimlaneHead=0;swimlaneBody=0;fillColor=none;collapsible=0;dropTarget=0;points=[[0,0.5],[1,0.5]];portConstraint=eastwest;top=0;left=0;right=0;bottom=0;" parent="7z2uK8pHWrHxvsxm8yLZ-23" vertex="1">
          <mxGeometry y="179" width="180" height="30" as="geometry" />
        </mxCell>
        <mxCell id="7z2uK8pHWrHxvsxm8yLZ-40" value="" style="shape=partialRectangle;connectable=0;fillColor=none;top=0;left=0;bottom=0;right=0;editable=1;overflow=hidden;whiteSpace=wrap;html=1;" parent="7z2uK8pHWrHxvsxm8yLZ-39" vertex="1">
          <mxGeometry width="30" height="30" as="geometry">
            <mxRectangle width="30" height="30" as="alternateBounds" />
          </mxGeometry>
        </mxCell>
        <mxCell id="7z2uK8pHWrHxvsxm8yLZ-41" value="" style="shape=partialRectangle;connectable=0;fillColor=none;top=0;left=0;bottom=0;right=0;align=left;spacingLeft=6;overflow=hidden;whiteSpace=wrap;html=1;" parent="7z2uK8pHWrHxvsxm8yLZ-39" vertex="1">
          <mxGeometry x="30" width="150" height="30" as="geometry">
            <mxRectangle width="150" height="30" as="alternateBounds" />
          </mxGeometry>
        </mxCell>
        <mxCell id="7z2uK8pHWrHxvsxm8yLZ-42" value="Requests" style="shape=table;startSize=30;container=1;collapsible=1;childLayout=tableLayout;fixedRows=1;rowLines=0;fontStyle=1;align=center;resizeLast=1;html=1;" parent="1" vertex="1">
          <mxGeometry x="1261" y="1016" width="180" height="330" as="geometry" />
        </mxCell>
        <mxCell id="7z2uK8pHWrHxvsxm8yLZ-43" value="" style="shape=tableRow;horizontal=0;startSize=0;swimlaneHead=0;swimlaneBody=0;fillColor=none;collapsible=0;dropTarget=0;points=[[0,0.5],[1,0.5]];portConstraint=eastwest;top=0;left=0;right=0;bottom=1;" parent="7z2uK8pHWrHxvsxm8yLZ-42" vertex="1">
          <mxGeometry y="30" width="180" height="31" as="geometry" />
        </mxCell>
        <mxCell id="7z2uK8pHWrHxvsxm8yLZ-44" value="PK" style="shape=partialRectangle;connectable=0;fillColor=none;top=0;left=0;bottom=0;right=0;fontStyle=1;overflow=hidden;whiteSpace=wrap;html=1;" parent="7z2uK8pHWrHxvsxm8yLZ-43" vertex="1">
          <mxGeometry width="30.170445368840205" height="31" as="geometry">
            <mxRectangle width="30.170445368840205" height="31" as="alternateBounds" />
          </mxGeometry>
        </mxCell>
        <mxCell id="7z2uK8pHWrHxvsxm8yLZ-45" value="RequestID" style="shape=partialRectangle;connectable=0;fillColor=none;top=0;left=0;bottom=0;right=0;align=left;spacingLeft=6;fontStyle=5;overflow=hidden;whiteSpace=wrap;html=1;" parent="7z2uK8pHWrHxvsxm8yLZ-43" vertex="1">
          <mxGeometry x="30.170445368840205" width="149.8295546311598" height="31" as="geometry">
            <mxRectangle width="149.8295546311598" height="31" as="alternateBounds" />
          </mxGeometry>
        </mxCell>
        <mxCell id="7z2uK8pHWrHxvsxm8yLZ-46" value="" style="shape=tableRow;horizontal=0;startSize=0;swimlaneHead=0;swimlaneBody=0;fillColor=none;collapsible=0;dropTarget=0;points=[[0,0.5],[1,0.5]];portConstraint=eastwest;top=0;left=0;right=0;bottom=1;" parent="7z2uK8pHWrHxvsxm8yLZ-42" vertex="1">
          <mxGeometry y="61" width="180" height="30" as="geometry" />
        </mxCell>
        <mxCell id="7z2uK8pHWrHxvsxm8yLZ-47" value="FK" style="shape=partialRectangle;connectable=0;fillColor=none;top=0;left=0;bottom=0;right=0;fontStyle=1;overflow=hidden;whiteSpace=wrap;html=1;" parent="7z2uK8pHWrHxvsxm8yLZ-46" vertex="1">
          <mxGeometry width="30.170445368840205" height="30" as="geometry">
            <mxRectangle width="30.170445368840205" height="30" as="alternateBounds" />
          </mxGeometry>
        </mxCell>
        <mxCell id="7z2uK8pHWrHxvsxm8yLZ-48" value="KnowledgeBaseID" style="shape=partialRectangle;connectable=0;fillColor=none;top=0;left=0;bottom=0;right=0;align=left;spacingLeft=6;fontStyle=5;overflow=hidden;whiteSpace=wrap;html=1;" parent="7z2uK8pHWrHxvsxm8yLZ-46" vertex="1">
          <mxGeometry x="30.170445368840205" width="149.8295546311598" height="30" as="geometry">
            <mxRectangle width="149.8295546311598" height="30" as="alternateBounds" />
          </mxGeometry>
        </mxCell>
        <mxCell id="7z2uK8pHWrHxvsxm8yLZ-49" value="" style="shape=tableRow;horizontal=0;startSize=0;swimlaneHead=0;swimlaneBody=0;fillColor=none;collapsible=0;dropTarget=0;points=[[0,0.5],[1,0.5]];portConstraint=eastwest;top=0;left=0;right=0;bottom=1;" parent="7z2uK8pHWrHxvsxm8yLZ-42" vertex="1">
          <mxGeometry y="91" width="180" height="30" as="geometry" />
        </mxCell>
        <mxCell id="7z2uK8pHWrHxvsxm8yLZ-50" value="FK" style="shape=partialRectangle;connectable=0;fillColor=none;top=0;left=0;bottom=0;right=0;fontStyle=1;overflow=hidden;whiteSpace=wrap;html=1;" parent="7z2uK8pHWrHxvsxm8yLZ-49" vertex="1">
          <mxGeometry width="30.170445368840205" height="30" as="geometry">
            <mxRectangle width="30.170445368840205" height="30" as="alternateBounds" />
          </mxGeometry>
        </mxCell>
        <mxCell id="7z2uK8pHWrHxvsxm8yLZ-51" value="UserId" style="shape=partialRectangle;connectable=0;fillColor=none;top=0;left=0;bottom=0;right=0;align=left;spacingLeft=6;fontStyle=5;overflow=hidden;whiteSpace=wrap;html=1;" parent="7z2uK8pHWrHxvsxm8yLZ-49" vertex="1">
          <mxGeometry x="30.170445368840205" width="149.8295546311598" height="30" as="geometry">
            <mxRectangle width="149.8295546311598" height="30" as="alternateBounds" />
          </mxGeometry>
        </mxCell>
        <mxCell id="7z2uK8pHWrHxvsxm8yLZ-52" value="" style="shape=tableRow;horizontal=0;startSize=0;swimlaneHead=0;swimlaneBody=0;fillColor=none;collapsible=0;dropTarget=0;points=[[0,0.5],[1,0.5]];portConstraint=eastwest;top=0;left=0;right=0;bottom=0;" parent="7z2uK8pHWrHxvsxm8yLZ-42" vertex="1">
          <mxGeometry y="121" width="180" height="24" as="geometry" />
        </mxCell>
        <mxCell id="7z2uK8pHWrHxvsxm8yLZ-53" value="" style="shape=partialRectangle;connectable=0;fillColor=none;top=0;left=0;bottom=0;right=0;editable=1;overflow=hidden;whiteSpace=wrap;html=1;" parent="7z2uK8pHWrHxvsxm8yLZ-52" vertex="1">
          <mxGeometry width="30.170445368840205" height="24" as="geometry">
            <mxRectangle width="30.170445368840205" height="24" as="alternateBounds" />
          </mxGeometry>
        </mxCell>
        <mxCell id="7z2uK8pHWrHxvsxm8yLZ-54" value="Title" style="shape=partialRectangle;connectable=0;fillColor=none;top=0;left=0;bottom=0;right=0;align=left;spacingLeft=6;overflow=hidden;whiteSpace=wrap;html=1;" parent="7z2uK8pHWrHxvsxm8yLZ-52" vertex="1">
          <mxGeometry x="30.170445368840205" width="149.8295546311598" height="24" as="geometry">
            <mxRectangle width="149.8295546311598" height="24" as="alternateBounds" />
          </mxGeometry>
        </mxCell>
        <mxCell id="7z2uK8pHWrHxvsxm8yLZ-55" value="" style="shape=tableRow;horizontal=0;startSize=0;swimlaneHead=0;swimlaneBody=0;fillColor=none;collapsible=0;dropTarget=0;points=[[0,0.5],[1,0.5]];portConstraint=eastwest;top=0;left=0;right=0;bottom=0;" parent="7z2uK8pHWrHxvsxm8yLZ-42" vertex="1">
          <mxGeometry y="145" width="180" height="35" as="geometry" />
        </mxCell>
        <mxCell id="7z2uK8pHWrHxvsxm8yLZ-56" value="" style="shape=partialRectangle;connectable=0;fillColor=none;top=0;left=0;bottom=0;right=0;editable=1;overflow=hidden;whiteSpace=wrap;html=1;" parent="7z2uK8pHWrHxvsxm8yLZ-55" vertex="1">
          <mxGeometry width="30.170445368840205" height="35" as="geometry">
            <mxRectangle width="30.170445368840205" height="35" as="alternateBounds" />
          </mxGeometry>
        </mxCell>
        <mxCell id="7z2uK8pHWrHxvsxm8yLZ-57" value="Description" style="shape=partialRectangle;connectable=0;fillColor=none;top=0;left=0;bottom=0;right=0;align=left;spacingLeft=6;overflow=hidden;whiteSpace=wrap;html=1;" parent="7z2uK8pHWrHxvsxm8yLZ-55" vertex="1">
          <mxGeometry x="30.170445368840205" width="149.8295546311598" height="35" as="geometry">
            <mxRectangle width="149.8295546311598" height="35" as="alternateBounds" />
          </mxGeometry>
        </mxCell>
        <mxCell id="7z2uK8pHWrHxvsxm8yLZ-58" value="" style="shape=tableRow;horizontal=0;startSize=0;swimlaneHead=0;swimlaneBody=0;fillColor=none;collapsible=0;dropTarget=0;points=[[0,0.5],[1,0.5]];portConstraint=eastwest;top=0;left=0;right=0;bottom=0;" parent="7z2uK8pHWrHxvsxm8yLZ-42" vertex="1">
          <mxGeometry y="180" width="180" height="30" as="geometry" />
        </mxCell>
        <mxCell id="7z2uK8pHWrHxvsxm8yLZ-59" value="" style="shape=partialRectangle;connectable=0;fillColor=none;top=0;left=0;bottom=0;right=0;editable=1;overflow=hidden;whiteSpace=wrap;html=1;" parent="7z2uK8pHWrHxvsxm8yLZ-58" vertex="1">
          <mxGeometry width="30.170445368840205" height="30" as="geometry">
            <mxRectangle width="30.170445368840205" height="30" as="alternateBounds" />
          </mxGeometry>
        </mxCell>
        <mxCell id="7z2uK8pHWrHxvsxm8yLZ-60" value="Status" style="shape=partialRectangle;connectable=0;fillColor=none;top=0;left=0;bottom=0;right=0;align=left;spacingLeft=6;overflow=hidden;whiteSpace=wrap;html=1;" parent="7z2uK8pHWrHxvsxm8yLZ-58" vertex="1">
          <mxGeometry x="30.170445368840205" width="149.8295546311598" height="30" as="geometry">
            <mxRectangle width="149.8295546311598" height="30" as="alternateBounds" />
          </mxGeometry>
        </mxCell>
        <mxCell id="7z2uK8pHWrHxvsxm8yLZ-61" value="" style="shape=tableRow;horizontal=0;startSize=0;swimlaneHead=0;swimlaneBody=0;fillColor=none;collapsible=0;dropTarget=0;points=[[0,0.5],[1,0.5]];portConstraint=eastwest;top=0;left=0;right=0;bottom=0;" parent="7z2uK8pHWrHxvsxm8yLZ-42" vertex="1">
          <mxGeometry y="210" width="180" height="30" as="geometry" />
        </mxCell>
        <mxCell id="7z2uK8pHWrHxvsxm8yLZ-62" value="" style="shape=partialRectangle;connectable=0;fillColor=none;top=0;left=0;bottom=0;right=0;editable=1;overflow=hidden;whiteSpace=wrap;html=1;" parent="7z2uK8pHWrHxvsxm8yLZ-61" vertex="1">
          <mxGeometry width="30.170445368840205" height="30" as="geometry">
            <mxRectangle width="30.170445368840205" height="30" as="alternateBounds" />
          </mxGeometry>
        </mxCell>
        <mxCell id="7z2uK8pHWrHxvsxm8yLZ-63" value="Priority" style="shape=partialRectangle;connectable=0;fillColor=none;top=0;left=0;bottom=0;right=0;align=left;spacingLeft=6;overflow=hidden;whiteSpace=wrap;html=1;" parent="7z2uK8pHWrHxvsxm8yLZ-61" vertex="1">
          <mxGeometry x="30.170445368840205" width="149.8295546311598" height="30" as="geometry">
            <mxRectangle width="149.8295546311598" height="30" as="alternateBounds" />
          </mxGeometry>
        </mxCell>
        <mxCell id="7z2uK8pHWrHxvsxm8yLZ-64" value="" style="shape=tableRow;horizontal=0;startSize=0;swimlaneHead=0;swimlaneBody=0;fillColor=none;collapsible=0;dropTarget=0;points=[[0,0.5],[1,0.5]];portConstraint=eastwest;top=0;left=0;right=0;bottom=0;" parent="7z2uK8pHWrHxvsxm8yLZ-42" vertex="1">
          <mxGeometry y="240" width="180" height="30" as="geometry" />
        </mxCell>
        <mxCell id="7z2uK8pHWrHxvsxm8yLZ-65" value="" style="shape=partialRectangle;connectable=0;fillColor=none;top=0;left=0;bottom=0;right=0;editable=1;overflow=hidden;whiteSpace=wrap;html=1;" parent="7z2uK8pHWrHxvsxm8yLZ-64" vertex="1">
          <mxGeometry width="30.170445368840205" height="30" as="geometry">
            <mxRectangle width="30.170445368840205" height="30" as="alternateBounds" />
          </mxGeometry>
        </mxCell>
        <mxCell id="7z2uK8pHWrHxvsxm8yLZ-66" value="CreatedAt" style="shape=partialRectangle;connectable=0;fillColor=none;top=0;left=0;bottom=0;right=0;align=left;spacingLeft=6;overflow=hidden;whiteSpace=wrap;html=1;" parent="7z2uK8pHWrHxvsxm8yLZ-64" vertex="1">
          <mxGeometry x="30.170445368840205" width="149.8295546311598" height="30" as="geometry">
            <mxRectangle width="149.8295546311598" height="30" as="alternateBounds" />
          </mxGeometry>
        </mxCell>
        <mxCell id="7z2uK8pHWrHxvsxm8yLZ-67" value="" style="shape=tableRow;horizontal=0;startSize=0;swimlaneHead=0;swimlaneBody=0;fillColor=none;collapsible=0;dropTarget=0;points=[[0,0.5],[1,0.5]];portConstraint=eastwest;top=0;left=0;right=0;bottom=0;" parent="7z2uK8pHWrHxvsxm8yLZ-42" vertex="1">
          <mxGeometry y="270" width="180" height="30" as="geometry" />
        </mxCell>
        <mxCell id="7z2uK8pHWrHxvsxm8yLZ-68" value="" style="shape=partialRectangle;connectable=0;fillColor=none;top=0;left=0;bottom=0;right=0;editable=1;overflow=hidden;whiteSpace=wrap;html=1;" parent="7z2uK8pHWrHxvsxm8yLZ-67" vertex="1">
          <mxGeometry width="30.170445368840205" height="30" as="geometry">
            <mxRectangle width="30.170445368840205" height="30" as="alternateBounds" />
          </mxGeometry>
        </mxCell>
        <mxCell id="7z2uK8pHWrHxvsxm8yLZ-69" value="UpdatedAt" style="shape=partialRectangle;connectable=0;fillColor=none;top=0;left=0;bottom=0;right=0;align=left;spacingLeft=6;overflow=hidden;whiteSpace=wrap;html=1;" parent="7z2uK8pHWrHxvsxm8yLZ-67" vertex="1">
          <mxGeometry x="30.170445368840205" width="149.8295546311598" height="30" as="geometry">
            <mxRectangle width="149.8295546311598" height="30" as="alternateBounds" />
          </mxGeometry>
        </mxCell>
        <mxCell id="7z2uK8pHWrHxvsxm8yLZ-70" value="" style="shape=tableRow;horizontal=0;startSize=0;swimlaneHead=0;swimlaneBody=0;fillColor=none;collapsible=0;dropTarget=0;points=[[0,0.5],[1,0.5]];portConstraint=eastwest;top=0;left=0;right=0;bottom=0;" parent="7z2uK8pHWrHxvsxm8yLZ-42" vertex="1">
          <mxGeometry y="300" width="180" height="30" as="geometry" />
        </mxCell>
        <mxCell id="7z2uK8pHWrHxvsxm8yLZ-71" value="" style="shape=partialRectangle;connectable=0;fillColor=none;top=0;left=0;bottom=0;right=0;editable=1;overflow=hidden;whiteSpace=wrap;html=1;" parent="7z2uK8pHWrHxvsxm8yLZ-70" vertex="1">
          <mxGeometry width="30.170445368840205" height="30" as="geometry">
            <mxRectangle width="30.170445368840205" height="30" as="alternateBounds" />
          </mxGeometry>
        </mxCell>
        <mxCell id="7z2uK8pHWrHxvsxm8yLZ-72" value="UserFullName" style="shape=partialRectangle;connectable=0;fillColor=none;top=0;left=0;bottom=0;right=0;align=left;spacingLeft=6;overflow=hidden;whiteSpace=wrap;html=1;" parent="7z2uK8pHWrHxvsxm8yLZ-70" vertex="1">
          <mxGeometry x="30.170445368840205" width="149.8295546311598" height="30" as="geometry">
            <mxRectangle width="149.8295546311598" height="30" as="alternateBounds" />
          </mxGeometry>
        </mxCell>
        <mxCell id="7z2uK8pHWrHxvsxm8yLZ-74" value="Incidents" style="shape=table;startSize=30;container=1;collapsible=1;childLayout=tableLayout;fixedRows=1;rowLines=0;fontStyle=1;align=center;resizeLast=1;html=1;" parent="1" vertex="1">
          <mxGeometry x="960" y="1289" width="180" height="300" as="geometry" />
        </mxCell>
        <mxCell id="7z2uK8pHWrHxvsxm8yLZ-75" value="" style="shape=tableRow;horizontal=0;startSize=0;swimlaneHead=0;swimlaneBody=0;fillColor=none;collapsible=0;dropTarget=0;points=[[0,0.5],[1,0.5]];portConstraint=eastwest;top=0;left=0;right=0;bottom=1;" parent="7z2uK8pHWrHxvsxm8yLZ-74" vertex="1">
          <mxGeometry y="30" width="180" height="31" as="geometry" />
        </mxCell>
        <mxCell id="7z2uK8pHWrHxvsxm8yLZ-76" value="PK" style="shape=partialRectangle;connectable=0;fillColor=none;top=0;left=0;bottom=0;right=0;fontStyle=1;overflow=hidden;whiteSpace=wrap;html=1;" parent="7z2uK8pHWrHxvsxm8yLZ-75" vertex="1">
          <mxGeometry width="30" height="31" as="geometry">
            <mxRectangle width="30" height="31" as="alternateBounds" />
          </mxGeometry>
        </mxCell>
        <mxCell id="7z2uK8pHWrHxvsxm8yLZ-77" value="IncidentID" style="shape=partialRectangle;connectable=0;fillColor=none;top=0;left=0;bottom=0;right=0;align=left;spacingLeft=6;fontStyle=5;overflow=hidden;whiteSpace=wrap;html=1;" parent="7z2uK8pHWrHxvsxm8yLZ-75" vertex="1">
          <mxGeometry x="30" width="150" height="31" as="geometry">
            <mxRectangle width="150" height="31" as="alternateBounds" />
          </mxGeometry>
        </mxCell>
        <mxCell id="7z2uK8pHWrHxvsxm8yLZ-78" value="" style="shape=tableRow;horizontal=0;startSize=0;swimlaneHead=0;swimlaneBody=0;fillColor=none;collapsible=0;dropTarget=0;points=[[0,0.5],[1,0.5]];portConstraint=eastwest;top=0;left=0;right=0;bottom=1;" parent="7z2uK8pHWrHxvsxm8yLZ-74" vertex="1">
          <mxGeometry y="61" width="180" height="30" as="geometry" />
        </mxCell>
        <mxCell id="7z2uK8pHWrHxvsxm8yLZ-79" value="FK" style="shape=partialRectangle;connectable=0;fillColor=none;top=0;left=0;bottom=0;right=0;fontStyle=1;overflow=hidden;whiteSpace=wrap;html=1;" parent="7z2uK8pHWrHxvsxm8yLZ-78" vertex="1">
          <mxGeometry width="30" height="30" as="geometry">
            <mxRectangle width="30" height="30" as="alternateBounds" />
          </mxGeometry>
        </mxCell>
        <mxCell id="7z2uK8pHWrHxvsxm8yLZ-80" value="UserId" style="shape=partialRectangle;connectable=0;fillColor=none;top=0;left=0;bottom=0;right=0;align=left;spacingLeft=6;fontStyle=5;overflow=hidden;whiteSpace=wrap;html=1;" parent="7z2uK8pHWrHxvsxm8yLZ-78" vertex="1">
          <mxGeometry x="30" width="150" height="30" as="geometry">
            <mxRectangle width="150" height="30" as="alternateBounds" />
          </mxGeometry>
        </mxCell>
        <mxCell id="7z2uK8pHWrHxvsxm8yLZ-81" value="" style="shape=tableRow;horizontal=0;startSize=0;swimlaneHead=0;swimlaneBody=0;fillColor=none;collapsible=0;dropTarget=0;points=[[0,0.5],[1,0.5]];portConstraint=eastwest;top=0;left=0;right=0;bottom=0;" parent="7z2uK8pHWrHxvsxm8yLZ-74" vertex="1">
          <mxGeometry y="91" width="180" height="24" as="geometry" />
        </mxCell>
        <mxCell id="7z2uK8pHWrHxvsxm8yLZ-82" value="" style="shape=partialRectangle;connectable=0;fillColor=none;top=0;left=0;bottom=0;right=0;editable=1;overflow=hidden;whiteSpace=wrap;html=1;" parent="7z2uK8pHWrHxvsxm8yLZ-81" vertex="1">
          <mxGeometry width="30" height="24" as="geometry">
            <mxRectangle width="30" height="24" as="alternateBounds" />
          </mxGeometry>
        </mxCell>
        <mxCell id="7z2uK8pHWrHxvsxm8yLZ-83" value="Title" style="shape=partialRectangle;connectable=0;fillColor=none;top=0;left=0;bottom=0;right=0;align=left;spacingLeft=6;overflow=hidden;whiteSpace=wrap;html=1;" parent="7z2uK8pHWrHxvsxm8yLZ-81" vertex="1">
          <mxGeometry x="30" width="150" height="24" as="geometry">
            <mxRectangle width="150" height="24" as="alternateBounds" />
          </mxGeometry>
        </mxCell>
        <mxCell id="7z2uK8pHWrHxvsxm8yLZ-84" value="" style="shape=tableRow;horizontal=0;startSize=0;swimlaneHead=0;swimlaneBody=0;fillColor=none;collapsible=0;dropTarget=0;points=[[0,0.5],[1,0.5]];portConstraint=eastwest;top=0;left=0;right=0;bottom=0;" parent="7z2uK8pHWrHxvsxm8yLZ-74" vertex="1">
          <mxGeometry y="115" width="180" height="35" as="geometry" />
        </mxCell>
        <mxCell id="7z2uK8pHWrHxvsxm8yLZ-85" value="" style="shape=partialRectangle;connectable=0;fillColor=none;top=0;left=0;bottom=0;right=0;editable=1;overflow=hidden;whiteSpace=wrap;html=1;" parent="7z2uK8pHWrHxvsxm8yLZ-84" vertex="1">
          <mxGeometry width="30" height="35" as="geometry">
            <mxRectangle width="30" height="35" as="alternateBounds" />
          </mxGeometry>
        </mxCell>
        <mxCell id="7z2uK8pHWrHxvsxm8yLZ-86" value="Description" style="shape=partialRectangle;connectable=0;fillColor=none;top=0;left=0;bottom=0;right=0;align=left;spacingLeft=6;overflow=hidden;whiteSpace=wrap;html=1;" parent="7z2uK8pHWrHxvsxm8yLZ-84" vertex="1">
          <mxGeometry x="30" width="150" height="35" as="geometry">
            <mxRectangle width="150" height="35" as="alternateBounds" />
          </mxGeometry>
        </mxCell>
        <mxCell id="7z2uK8pHWrHxvsxm8yLZ-87" value="" style="shape=tableRow;horizontal=0;startSize=0;swimlaneHead=0;swimlaneBody=0;fillColor=none;collapsible=0;dropTarget=0;points=[[0,0.5],[1,0.5]];portConstraint=eastwest;top=0;left=0;right=0;bottom=0;" parent="7z2uK8pHWrHxvsxm8yLZ-74" vertex="1">
          <mxGeometry y="150" width="180" height="30" as="geometry" />
        </mxCell>
        <mxCell id="7z2uK8pHWrHxvsxm8yLZ-88" value="" style="shape=partialRectangle;connectable=0;fillColor=none;top=0;left=0;bottom=0;right=0;editable=1;overflow=hidden;whiteSpace=wrap;html=1;" parent="7z2uK8pHWrHxvsxm8yLZ-87" vertex="1">
          <mxGeometry width="30" height="30" as="geometry">
            <mxRectangle width="30" height="30" as="alternateBounds" />
          </mxGeometry>
        </mxCell>
        <mxCell id="7z2uK8pHWrHxvsxm8yLZ-89" value="Status" style="shape=partialRectangle;connectable=0;fillColor=none;top=0;left=0;bottom=0;right=0;align=left;spacingLeft=6;overflow=hidden;whiteSpace=wrap;html=1;" parent="7z2uK8pHWrHxvsxm8yLZ-87" vertex="1">
          <mxGeometry x="30" width="150" height="30" as="geometry">
            <mxRectangle width="150" height="30" as="alternateBounds" />
          </mxGeometry>
        </mxCell>
        <mxCell id="7z2uK8pHWrHxvsxm8yLZ-90" value="" style="shape=tableRow;horizontal=0;startSize=0;swimlaneHead=0;swimlaneBody=0;fillColor=none;collapsible=0;dropTarget=0;points=[[0,0.5],[1,0.5]];portConstraint=eastwest;top=0;left=0;right=0;bottom=0;" parent="7z2uK8pHWrHxvsxm8yLZ-74" vertex="1">
          <mxGeometry y="180" width="180" height="30" as="geometry" />
        </mxCell>
        <mxCell id="7z2uK8pHWrHxvsxm8yLZ-91" value="" style="shape=partialRectangle;connectable=0;fillColor=none;top=0;left=0;bottom=0;right=0;editable=1;overflow=hidden;whiteSpace=wrap;html=1;" parent="7z2uK8pHWrHxvsxm8yLZ-90" vertex="1">
          <mxGeometry width="30" height="30" as="geometry">
            <mxRectangle width="30" height="30" as="alternateBounds" />
          </mxGeometry>
        </mxCell>
        <mxCell id="7z2uK8pHWrHxvsxm8yLZ-92" value="Priority" style="shape=partialRectangle;connectable=0;fillColor=none;top=0;left=0;bottom=0;right=0;align=left;spacingLeft=6;overflow=hidden;whiteSpace=wrap;html=1;" parent="7z2uK8pHWrHxvsxm8yLZ-90" vertex="1">
          <mxGeometry x="30" width="150" height="30" as="geometry">
            <mxRectangle width="150" height="30" as="alternateBounds" />
          </mxGeometry>
        </mxCell>
        <mxCell id="7z2uK8pHWrHxvsxm8yLZ-93" value="" style="shape=tableRow;horizontal=0;startSize=0;swimlaneHead=0;swimlaneBody=0;fillColor=none;collapsible=0;dropTarget=0;points=[[0,0.5],[1,0.5]];portConstraint=eastwest;top=0;left=0;right=0;bottom=0;" parent="7z2uK8pHWrHxvsxm8yLZ-74" vertex="1">
          <mxGeometry y="210" width="180" height="30" as="geometry" />
        </mxCell>
        <mxCell id="7z2uK8pHWrHxvsxm8yLZ-94" value="" style="shape=partialRectangle;connectable=0;fillColor=none;top=0;left=0;bottom=0;right=0;editable=1;overflow=hidden;whiteSpace=wrap;html=1;" parent="7z2uK8pHWrHxvsxm8yLZ-93" vertex="1">
          <mxGeometry width="30" height="30" as="geometry">
            <mxRectangle width="30" height="30" as="alternateBounds" />
          </mxGeometry>
        </mxCell>
        <mxCell id="7z2uK8pHWrHxvsxm8yLZ-95" value="CreatedAt" style="shape=partialRectangle;connectable=0;fillColor=none;top=0;left=0;bottom=0;right=0;align=left;spacingLeft=6;overflow=hidden;whiteSpace=wrap;html=1;" parent="7z2uK8pHWrHxvsxm8yLZ-93" vertex="1">
          <mxGeometry x="30" width="150" height="30" as="geometry">
            <mxRectangle width="150" height="30" as="alternateBounds" />
          </mxGeometry>
        </mxCell>
        <mxCell id="7z2uK8pHWrHxvsxm8yLZ-96" value="" style="shape=tableRow;horizontal=0;startSize=0;swimlaneHead=0;swimlaneBody=0;fillColor=none;collapsible=0;dropTarget=0;points=[[0,0.5],[1,0.5]];portConstraint=eastwest;top=0;left=0;right=0;bottom=0;" parent="7z2uK8pHWrHxvsxm8yLZ-74" vertex="1">
          <mxGeometry y="240" width="180" height="30" as="geometry" />
        </mxCell>
        <mxCell id="7z2uK8pHWrHxvsxm8yLZ-97" value="" style="shape=partialRectangle;connectable=0;fillColor=none;top=0;left=0;bottom=0;right=0;editable=1;overflow=hidden;whiteSpace=wrap;html=1;" parent="7z2uK8pHWrHxvsxm8yLZ-96" vertex="1">
          <mxGeometry width="30" height="30" as="geometry">
            <mxRectangle width="30" height="30" as="alternateBounds" />
          </mxGeometry>
        </mxCell>
        <mxCell id="7z2uK8pHWrHxvsxm8yLZ-98" value="ClosedAt" style="shape=partialRectangle;connectable=0;fillColor=none;top=0;left=0;bottom=0;right=0;align=left;spacingLeft=6;overflow=hidden;whiteSpace=wrap;html=1;" parent="7z2uK8pHWrHxvsxm8yLZ-96" vertex="1">
          <mxGeometry x="30" width="150" height="30" as="geometry">
            <mxRectangle width="150" height="30" as="alternateBounds" />
          </mxGeometry>
        </mxCell>
        <mxCell id="7z2uK8pHWrHxvsxm8yLZ-99" value="" style="shape=tableRow;horizontal=0;startSize=0;swimlaneHead=0;swimlaneBody=0;fillColor=none;collapsible=0;dropTarget=0;points=[[0,0.5],[1,0.5]];portConstraint=eastwest;top=0;left=0;right=0;bottom=0;" parent="7z2uK8pHWrHxvsxm8yLZ-74" vertex="1">
          <mxGeometry y="270" width="180" height="30" as="geometry" />
        </mxCell>
        <mxCell id="7z2uK8pHWrHxvsxm8yLZ-100" value="" style="shape=partialRectangle;connectable=0;fillColor=none;top=0;left=0;bottom=0;right=0;editable=1;overflow=hidden;whiteSpace=wrap;html=1;" parent="7z2uK8pHWrHxvsxm8yLZ-99" vertex="1">
          <mxGeometry width="30" height="30" as="geometry">
            <mxRectangle width="30" height="30" as="alternateBounds" />
          </mxGeometry>
        </mxCell>
        <mxCell id="7z2uK8pHWrHxvsxm8yLZ-101" value="UserFullName" style="shape=partialRectangle;connectable=0;fillColor=none;top=0;left=0;bottom=0;right=0;align=left;spacingLeft=6;overflow=hidden;whiteSpace=wrap;html=1;" parent="7z2uK8pHWrHxvsxm8yLZ-99" vertex="1">
          <mxGeometry x="30" width="150" height="30" as="geometry">
            <mxRectangle width="150" height="30" as="alternateBounds" />
          </mxGeometry>
        </mxCell>
        <mxCell id="7z2uK8pHWrHxvsxm8yLZ-103" value="Comments" style="shape=table;startSize=30;container=1;collapsible=1;childLayout=tableLayout;fixedRows=1;rowLines=0;fontStyle=1;align=center;resizeLast=1;html=1;" parent="1" vertex="1">
          <mxGeometry x="1584" y="1377" width="180" height="245" as="geometry" />
        </mxCell>
        <mxCell id="7z2uK8pHWrHxvsxm8yLZ-104" value="" style="shape=tableRow;horizontal=0;startSize=0;swimlaneHead=0;swimlaneBody=0;fillColor=none;collapsible=0;dropTarget=0;points=[[0,0.5],[1,0.5]];portConstraint=eastwest;top=0;left=0;right=0;bottom=1;" parent="7z2uK8pHWrHxvsxm8yLZ-103" vertex="1">
          <mxGeometry y="30" width="180" height="31" as="geometry" />
        </mxCell>
        <mxCell id="7z2uK8pHWrHxvsxm8yLZ-105" value="PK" style="shape=partialRectangle;connectable=0;fillColor=none;top=0;left=0;bottom=0;right=0;fontStyle=1;overflow=hidden;whiteSpace=wrap;html=1;" parent="7z2uK8pHWrHxvsxm8yLZ-104" vertex="1">
          <mxGeometry width="29.580734916355482" height="31" as="geometry">
            <mxRectangle width="29.580734916355482" height="31" as="alternateBounds" />
          </mxGeometry>
        </mxCell>
        <mxCell id="7z2uK8pHWrHxvsxm8yLZ-106" value="CommentID" style="shape=partialRectangle;connectable=0;fillColor=none;top=0;left=0;bottom=0;right=0;align=left;spacingLeft=6;fontStyle=5;overflow=hidden;whiteSpace=wrap;html=1;" parent="7z2uK8pHWrHxvsxm8yLZ-104" vertex="1">
          <mxGeometry x="29.580734916355482" width="150.41926508364452" height="31" as="geometry">
            <mxRectangle width="150.41926508364452" height="31" as="alternateBounds" />
          </mxGeometry>
        </mxCell>
        <mxCell id="7z2uK8pHWrHxvsxm8yLZ-107" value="" style="shape=tableRow;horizontal=0;startSize=0;swimlaneHead=0;swimlaneBody=0;fillColor=none;collapsible=0;dropTarget=0;points=[[0,0.5],[1,0.5]];portConstraint=eastwest;top=0;left=0;right=0;bottom=1;" parent="7z2uK8pHWrHxvsxm8yLZ-103" vertex="1">
          <mxGeometry y="61" width="180" height="30" as="geometry" />
        </mxCell>
        <mxCell id="7z2uK8pHWrHxvsxm8yLZ-108" value="FK" style="shape=partialRectangle;connectable=0;fillColor=none;top=0;left=0;bottom=0;right=0;fontStyle=1;overflow=hidden;whiteSpace=wrap;html=1;" parent="7z2uK8pHWrHxvsxm8yLZ-107" vertex="1">
          <mxGeometry width="29.580734916355482" height="30" as="geometry">
            <mxRectangle width="29.580734916355482" height="30" as="alternateBounds" />
          </mxGeometry>
        </mxCell>
        <mxCell id="7z2uK8pHWrHxvsxm8yLZ-109" value="RequestID" style="shape=partialRectangle;connectable=0;fillColor=none;top=0;left=0;bottom=0;right=0;align=left;spacingLeft=6;fontStyle=5;overflow=hidden;whiteSpace=wrap;html=1;" parent="7z2uK8pHWrHxvsxm8yLZ-107" vertex="1">
          <mxGeometry x="29.580734916355482" width="150.41926508364452" height="30" as="geometry">
            <mxRectangle width="150.41926508364452" height="30" as="alternateBounds" />
          </mxGeometry>
        </mxCell>
        <mxCell id="7z2uK8pHWrHxvsxm8yLZ-110" value="" style="shape=tableRow;horizontal=0;startSize=0;swimlaneHead=0;swimlaneBody=0;fillColor=none;collapsible=0;dropTarget=0;points=[[0,0.5],[1,0.5]];portConstraint=eastwest;top=0;left=0;right=0;bottom=1;" parent="7z2uK8pHWrHxvsxm8yLZ-103" vertex="1">
          <mxGeometry y="91" width="180" height="30" as="geometry" />
        </mxCell>
        <mxCell id="7z2uK8pHWrHxvsxm8yLZ-111" value="FK" style="shape=partialRectangle;connectable=0;fillColor=none;top=0;left=0;bottom=0;right=0;fontStyle=1;overflow=hidden;whiteSpace=wrap;html=1;" parent="7z2uK8pHWrHxvsxm8yLZ-110" vertex="1">
          <mxGeometry width="29.580734916355482" height="30" as="geometry">
            <mxRectangle width="29.580734916355482" height="30" as="alternateBounds" />
          </mxGeometry>
        </mxCell>
        <mxCell id="7z2uK8pHWrHxvsxm8yLZ-112" value="IncidentID" style="shape=partialRectangle;connectable=0;fillColor=none;top=0;left=0;bottom=0;right=0;align=left;spacingLeft=6;fontStyle=5;overflow=hidden;whiteSpace=wrap;html=1;" parent="7z2uK8pHWrHxvsxm8yLZ-110" vertex="1">
          <mxGeometry x="29.580734916355482" width="150.41926508364452" height="30" as="geometry">
            <mxRectangle width="150.41926508364452" height="30" as="alternateBounds" />
          </mxGeometry>
        </mxCell>
        <mxCell id="7z2uK8pHWrHxvsxm8yLZ-113" value="" style="shape=tableRow;horizontal=0;startSize=0;swimlaneHead=0;swimlaneBody=0;fillColor=none;collapsible=0;dropTarget=0;points=[[0,0.5],[1,0.5]];portConstraint=eastwest;top=0;left=0;right=0;bottom=1;" parent="7z2uK8pHWrHxvsxm8yLZ-103" vertex="1">
          <mxGeometry y="121" width="180" height="30" as="geometry" />
        </mxCell>
        <mxCell id="7z2uK8pHWrHxvsxm8yLZ-114" value="FK" style="shape=partialRectangle;connectable=0;fillColor=none;top=0;left=0;bottom=0;right=0;fontStyle=1;overflow=hidden;whiteSpace=wrap;html=1;" parent="7z2uK8pHWrHxvsxm8yLZ-113" vertex="1">
          <mxGeometry width="29.580734916355482" height="30" as="geometry">
            <mxRectangle width="29.580734916355482" height="30" as="alternateBounds" />
          </mxGeometry>
        </mxCell>
        <mxCell id="7z2uK8pHWrHxvsxm8yLZ-115" value="UserID" style="shape=partialRectangle;connectable=0;fillColor=none;top=0;left=0;bottom=0;right=0;align=left;spacingLeft=6;fontStyle=5;overflow=hidden;whiteSpace=wrap;html=1;" parent="7z2uK8pHWrHxvsxm8yLZ-113" vertex="1">
          <mxGeometry x="29.580734916355482" width="150.41926508364452" height="30" as="geometry">
            <mxRectangle width="150.41926508364452" height="30" as="alternateBounds" />
          </mxGeometry>
        </mxCell>
        <mxCell id="7z2uK8pHWrHxvsxm8yLZ-116" value="" style="shape=tableRow;horizontal=0;startSize=0;swimlaneHead=0;swimlaneBody=0;fillColor=none;collapsible=0;dropTarget=0;points=[[0,0.5],[1,0.5]];portConstraint=eastwest;top=0;left=0;right=0;bottom=0;" parent="7z2uK8pHWrHxvsxm8yLZ-103" vertex="1">
          <mxGeometry y="151" width="180" height="24" as="geometry" />
        </mxCell>
        <mxCell id="7z2uK8pHWrHxvsxm8yLZ-117" value="" style="shape=partialRectangle;connectable=0;fillColor=none;top=0;left=0;bottom=0;right=0;editable=1;overflow=hidden;whiteSpace=wrap;html=1;" parent="7z2uK8pHWrHxvsxm8yLZ-116" vertex="1">
          <mxGeometry width="29.580734916355482" height="24" as="geometry">
            <mxRectangle width="29.580734916355482" height="24" as="alternateBounds" />
          </mxGeometry>
        </mxCell>
        <mxCell id="7z2uK8pHWrHxvsxm8yLZ-118" value="Text" style="shape=partialRectangle;connectable=0;fillColor=none;top=0;left=0;bottom=0;right=0;align=left;spacingLeft=6;overflow=hidden;whiteSpace=wrap;html=1;" parent="7z2uK8pHWrHxvsxm8yLZ-116" vertex="1">
          <mxGeometry x="29.580734916355482" width="150.41926508364452" height="24" as="geometry">
            <mxRectangle width="150.41926508364452" height="24" as="alternateBounds" />
          </mxGeometry>
        </mxCell>
        <mxCell id="7z2uK8pHWrHxvsxm8yLZ-119" value="" style="shape=tableRow;horizontal=0;startSize=0;swimlaneHead=0;swimlaneBody=0;fillColor=none;collapsible=0;dropTarget=0;points=[[0,0.5],[1,0.5]];portConstraint=eastwest;top=0;left=0;right=0;bottom=0;" parent="7z2uK8pHWrHxvsxm8yLZ-103" vertex="1">
          <mxGeometry y="175" width="180" height="35" as="geometry" />
        </mxCell>
        <mxCell id="7z2uK8pHWrHxvsxm8yLZ-120" value="" style="shape=partialRectangle;connectable=0;fillColor=none;top=0;left=0;bottom=0;right=0;editable=1;overflow=hidden;whiteSpace=wrap;html=1;" parent="7z2uK8pHWrHxvsxm8yLZ-119" vertex="1">
          <mxGeometry width="29.580734916355482" height="35" as="geometry">
            <mxRectangle width="29.580734916355482" height="35" as="alternateBounds" />
          </mxGeometry>
        </mxCell>
        <mxCell id="7z2uK8pHWrHxvsxm8yLZ-121" value="CreatedAt" style="shape=partialRectangle;connectable=0;fillColor=none;top=0;left=0;bottom=0;right=0;align=left;spacingLeft=6;overflow=hidden;whiteSpace=wrap;html=1;" parent="7z2uK8pHWrHxvsxm8yLZ-119" vertex="1">
          <mxGeometry x="29.580734916355482" width="150.41926508364452" height="35" as="geometry">
            <mxRectangle width="150.41926508364452" height="35" as="alternateBounds" />
          </mxGeometry>
        </mxCell>
        <mxCell id="7z2uK8pHWrHxvsxm8yLZ-122" value="" style="shape=tableRow;horizontal=0;startSize=0;swimlaneHead=0;swimlaneBody=0;fillColor=none;collapsible=0;dropTarget=0;points=[[0,0.5],[1,0.5]];portConstraint=eastwest;top=0;left=0;right=0;bottom=0;" parent="7z2uK8pHWrHxvsxm8yLZ-103" vertex="1">
          <mxGeometry y="210" width="180" height="35" as="geometry" />
        </mxCell>
        <mxCell id="7z2uK8pHWrHxvsxm8yLZ-123" value="" style="shape=partialRectangle;connectable=0;fillColor=none;top=0;left=0;bottom=0;right=0;editable=1;overflow=hidden;whiteSpace=wrap;html=1;" parent="7z2uK8pHWrHxvsxm8yLZ-122" vertex="1">
          <mxGeometry width="29.580734916355482" height="35" as="geometry">
            <mxRectangle width="29.580734916355482" height="35" as="alternateBounds" />
          </mxGeometry>
        </mxCell>
        <mxCell id="7z2uK8pHWrHxvsxm8yLZ-124" value="UserFullName" style="shape=partialRectangle;connectable=0;fillColor=none;top=0;left=0;bottom=0;right=0;align=left;spacingLeft=6;overflow=hidden;whiteSpace=wrap;html=1;" parent="7z2uK8pHWrHxvsxm8yLZ-122" vertex="1">
          <mxGeometry x="29.580734916355482" width="150.41926508364452" height="35" as="geometry">
            <mxRectangle width="150.41926508364452" height="35" as="alternateBounds" />
          </mxGeometry>
        </mxCell>
        <mxCell id="7z2uK8pHWrHxvsxm8yLZ-125" style="edgeStyle=orthogonalEdgeStyle;rounded=0;orthogonalLoop=1;jettySize=auto;html=1;entryX=0;entryY=0.5;entryDx=0;entryDy=0;endArrow=ERoneToMany;endFill=0;startArrow=ERone;startFill=0;" parent="1" source="7z2uK8pHWrHxvsxm8yLZ-2" target="7z2uK8pHWrHxvsxm8yLZ-113" edge="1">
          <mxGeometry relative="1" as="geometry">
            <Array as="points">
              <mxPoint x="1196" y="979" />
              <mxPoint x="1196" y="1381" />
              <mxPoint x="1483" y="1381" />
              <mxPoint x="1483" y="1513" />
            </Array>
          </mxGeometry>
        </mxCell>
        <mxCell id="7z2uK8pHWrHxvsxm8yLZ-126" style="edgeStyle=orthogonalEdgeStyle;rounded=0;orthogonalLoop=1;jettySize=auto;html=1;exitX=0;exitY=0.5;exitDx=0;exitDy=0;entryX=1;entryY=0.5;entryDx=0;entryDy=0;endArrow=ERoneToMany;endFill=0;startArrow=ERone;startFill=0;" parent="1" source="7z2uK8pHWrHxvsxm8yLZ-43" target="7z2uK8pHWrHxvsxm8yLZ-107" edge="1">
          <mxGeometry relative="1" as="geometry">
            <mxPoint x="1766" y="1453" as="targetPoint" />
            <Array as="points">
              <mxPoint x="1241" y="1061" />
              <mxPoint x="1241" y="659" />
              <mxPoint x="1811" y="659" />
              <mxPoint x="1811" y="1453" />
            </Array>
          </mxGeometry>
        </mxCell>
        <mxCell id="7z2uK8pHWrHxvsxm8yLZ-127" style="edgeStyle=orthogonalEdgeStyle;rounded=0;orthogonalLoop=1;jettySize=auto;html=1;endArrow=ERoneToMany;endFill=0;startArrow=ERone;startFill=0;" parent="1" source="7z2uK8pHWrHxvsxm8yLZ-75" edge="1">
          <mxGeometry relative="1" as="geometry">
            <Array as="points">
              <mxPoint x="1179" y="1335" />
              <mxPoint x="1179" y="1639" />
              <mxPoint x="1814" y="1639" />
              <mxPoint x="1814" y="1490" />
            </Array>
            <mxPoint x="1764" y="1490" as="targetPoint" />
          </mxGeometry>
        </mxCell>
        <mxCell id="7z2uK8pHWrHxvsxm8yLZ-128" value="Reports" style="shape=table;startSize=30;container=1;collapsible=1;childLayout=tableLayout;fixedRows=1;rowLines=0;fontStyle=1;align=center;resizeLast=1;html=1;" parent="1" vertex="1">
          <mxGeometry x="665" y="1370" width="180" height="210" as="geometry" />
        </mxCell>
        <mxCell id="7z2uK8pHWrHxvsxm8yLZ-129" value="" style="shape=tableRow;horizontal=0;startSize=0;swimlaneHead=0;swimlaneBody=0;fillColor=none;collapsible=0;dropTarget=0;points=[[0,0.5],[1,0.5]];portConstraint=eastwest;top=0;left=0;right=0;bottom=1;" parent="7z2uK8pHWrHxvsxm8yLZ-128" vertex="1">
          <mxGeometry y="30" width="180" height="31" as="geometry" />
        </mxCell>
        <mxCell id="7z2uK8pHWrHxvsxm8yLZ-130" value="PK" style="shape=partialRectangle;connectable=0;fillColor=none;top=0;left=0;bottom=0;right=0;fontStyle=1;overflow=hidden;whiteSpace=wrap;html=1;" parent="7z2uK8pHWrHxvsxm8yLZ-129" vertex="1">
          <mxGeometry width="28.305564032660666" height="31" as="geometry">
            <mxRectangle width="28.305564032660666" height="31" as="alternateBounds" />
          </mxGeometry>
        </mxCell>
        <mxCell id="7z2uK8pHWrHxvsxm8yLZ-131" value="ReportID" style="shape=partialRectangle;connectable=0;fillColor=none;top=0;left=0;bottom=0;right=0;align=left;spacingLeft=6;fontStyle=5;overflow=hidden;whiteSpace=wrap;html=1;" parent="7z2uK8pHWrHxvsxm8yLZ-129" vertex="1">
          <mxGeometry x="28.305564032660666" width="151.69443596733933" height="31" as="geometry">
            <mxRectangle width="151.69443596733933" height="31" as="alternateBounds" />
          </mxGeometry>
        </mxCell>
        <mxCell id="7z2uK8pHWrHxvsxm8yLZ-132" value="" style="shape=tableRow;horizontal=0;startSize=0;swimlaneHead=0;swimlaneBody=0;fillColor=none;collapsible=0;dropTarget=0;points=[[0,0.5],[1,0.5]];portConstraint=eastwest;top=0;left=0;right=0;bottom=1;" parent="7z2uK8pHWrHxvsxm8yLZ-128" vertex="1">
          <mxGeometry y="61" width="180" height="30" as="geometry" />
        </mxCell>
        <mxCell id="7z2uK8pHWrHxvsxm8yLZ-133" value="FK" style="shape=partialRectangle;connectable=0;fillColor=none;top=0;left=0;bottom=0;right=0;fontStyle=1;overflow=hidden;whiteSpace=wrap;html=1;" parent="7z2uK8pHWrHxvsxm8yLZ-132" vertex="1">
          <mxGeometry width="28.305564032660666" height="30" as="geometry">
            <mxRectangle width="28.305564032660666" height="30" as="alternateBounds" />
          </mxGeometry>
        </mxCell>
        <mxCell id="7z2uK8pHWrHxvsxm8yLZ-134" value="UserID" style="shape=partialRectangle;connectable=0;fillColor=none;top=0;left=0;bottom=0;right=0;align=left;spacingLeft=6;fontStyle=5;overflow=hidden;whiteSpace=wrap;html=1;" parent="7z2uK8pHWrHxvsxm8yLZ-132" vertex="1">
          <mxGeometry x="28.305564032660666" width="151.69443596733933" height="30" as="geometry">
            <mxRectangle width="151.69443596733933" height="30" as="alternateBounds" />
          </mxGeometry>
        </mxCell>
        <mxCell id="7z2uK8pHWrHxvsxm8yLZ-135" value="" style="shape=tableRow;horizontal=0;startSize=0;swimlaneHead=0;swimlaneBody=0;fillColor=none;collapsible=0;dropTarget=0;points=[[0,0.5],[1,0.5]];portConstraint=eastwest;top=0;left=0;right=0;bottom=0;" parent="7z2uK8pHWrHxvsxm8yLZ-128" vertex="1">
          <mxGeometry y="91" width="180" height="24" as="geometry" />
        </mxCell>
        <mxCell id="7z2uK8pHWrHxvsxm8yLZ-136" value="" style="shape=partialRectangle;connectable=0;fillColor=none;top=0;left=0;bottom=0;right=0;editable=1;overflow=hidden;whiteSpace=wrap;html=1;" parent="7z2uK8pHWrHxvsxm8yLZ-135" vertex="1">
          <mxGeometry width="28.305564032660666" height="24" as="geometry">
            <mxRectangle width="28.305564032660666" height="24" as="alternateBounds" />
          </mxGeometry>
        </mxCell>
        <mxCell id="7z2uK8pHWrHxvsxm8yLZ-137" value="ReportType" style="shape=partialRectangle;connectable=0;fillColor=none;top=0;left=0;bottom=0;right=0;align=left;spacingLeft=6;overflow=hidden;whiteSpace=wrap;html=1;" parent="7z2uK8pHWrHxvsxm8yLZ-135" vertex="1">
          <mxGeometry x="28.305564032660666" width="151.69443596733933" height="24" as="geometry">
            <mxRectangle width="151.69443596733933" height="24" as="alternateBounds" />
          </mxGeometry>
        </mxCell>
        <mxCell id="7z2uK8pHWrHxvsxm8yLZ-138" value="" style="shape=tableRow;horizontal=0;startSize=0;swimlaneHead=0;swimlaneBody=0;fillColor=none;collapsible=0;dropTarget=0;points=[[0,0.5],[1,0.5]];portConstraint=eastwest;top=0;left=0;right=0;bottom=0;" parent="7z2uK8pHWrHxvsxm8yLZ-128" vertex="1">
          <mxGeometry y="115" width="180" height="35" as="geometry" />
        </mxCell>
        <mxCell id="7z2uK8pHWrHxvsxm8yLZ-139" value="" style="shape=partialRectangle;connectable=0;fillColor=none;top=0;left=0;bottom=0;right=0;editable=1;overflow=hidden;whiteSpace=wrap;html=1;" parent="7z2uK8pHWrHxvsxm8yLZ-138" vertex="1">
          <mxGeometry width="28.305564032660666" height="35" as="geometry">
            <mxRectangle width="28.305564032660666" height="35" as="alternateBounds" />
          </mxGeometry>
        </mxCell>
        <mxCell id="7z2uK8pHWrHxvsxm8yLZ-140" value="CreatedAt" style="shape=partialRectangle;connectable=0;fillColor=none;top=0;left=0;bottom=0;right=0;align=left;spacingLeft=6;overflow=hidden;whiteSpace=wrap;html=1;" parent="7z2uK8pHWrHxvsxm8yLZ-138" vertex="1">
          <mxGeometry x="28.305564032660666" width="151.69443596733933" height="35" as="geometry">
            <mxRectangle width="151.69443596733933" height="35" as="alternateBounds" />
          </mxGeometry>
        </mxCell>
        <mxCell id="7z2uK8pHWrHxvsxm8yLZ-141" value="" style="shape=tableRow;horizontal=0;startSize=0;swimlaneHead=0;swimlaneBody=0;fillColor=none;collapsible=0;dropTarget=0;points=[[0,0.5],[1,0.5]];portConstraint=eastwest;top=0;left=0;right=0;bottom=0;" parent="7z2uK8pHWrHxvsxm8yLZ-128" vertex="1">
          <mxGeometry y="150" width="180" height="30" as="geometry" />
        </mxCell>
        <mxCell id="7z2uK8pHWrHxvsxm8yLZ-142" value="" style="shape=partialRectangle;connectable=0;fillColor=none;top=0;left=0;bottom=0;right=0;editable=1;overflow=hidden;whiteSpace=wrap;html=1;" parent="7z2uK8pHWrHxvsxm8yLZ-141" vertex="1">
          <mxGeometry width="28.305564032660666" height="30" as="geometry">
            <mxRectangle width="28.305564032660666" height="30" as="alternateBounds" />
          </mxGeometry>
        </mxCell>
        <mxCell id="7z2uK8pHWrHxvsxm8yLZ-143" value="ReportData" style="shape=partialRectangle;connectable=0;fillColor=none;top=0;left=0;bottom=0;right=0;align=left;spacingLeft=6;overflow=hidden;whiteSpace=wrap;html=1;" parent="7z2uK8pHWrHxvsxm8yLZ-141" vertex="1">
          <mxGeometry x="28.305564032660666" width="151.69443596733933" height="30" as="geometry">
            <mxRectangle width="151.69443596733933" height="30" as="alternateBounds" />
          </mxGeometry>
        </mxCell>
        <mxCell id="7z2uK8pHWrHxvsxm8yLZ-144" value="" style="shape=tableRow;horizontal=0;startSize=0;swimlaneHead=0;swimlaneBody=0;fillColor=none;collapsible=0;dropTarget=0;points=[[0,0.5],[1,0.5]];portConstraint=eastwest;top=0;left=0;right=0;bottom=0;" parent="7z2uK8pHWrHxvsxm8yLZ-128" vertex="1">
          <mxGeometry y="180" width="180" height="30" as="geometry" />
        </mxCell>
        <mxCell id="7z2uK8pHWrHxvsxm8yLZ-145" value="" style="shape=partialRectangle;connectable=0;fillColor=none;top=0;left=0;bottom=0;right=0;editable=1;overflow=hidden;whiteSpace=wrap;html=1;" parent="7z2uK8pHWrHxvsxm8yLZ-144" vertex="1">
          <mxGeometry width="28.305564032660666" height="30" as="geometry">
            <mxRectangle width="28.305564032660666" height="30" as="alternateBounds" />
          </mxGeometry>
        </mxCell>
        <mxCell id="7z2uK8pHWrHxvsxm8yLZ-146" value="UserFullName" style="shape=partialRectangle;connectable=0;fillColor=none;top=0;left=0;bottom=0;right=0;align=left;spacingLeft=6;overflow=hidden;whiteSpace=wrap;html=1;" parent="7z2uK8pHWrHxvsxm8yLZ-144" vertex="1">
          <mxGeometry x="28.305564032660666" width="151.69443596733933" height="30" as="geometry">
            <mxRectangle width="151.69443596733933" height="30" as="alternateBounds" />
          </mxGeometry>
        </mxCell>
        <mxCell id="7z2uK8pHWrHxvsxm8yLZ-147" style="edgeStyle=orthogonalEdgeStyle;rounded=0;orthogonalLoop=1;jettySize=auto;html=1;entryX=0;entryY=0.5;entryDx=0;entryDy=0;endArrow=ERoneToMany;endFill=0;startArrow=ERone;startFill=0;" parent="1" source="7z2uK8pHWrHxvsxm8yLZ-2" target="7z2uK8pHWrHxvsxm8yLZ-132" edge="1">
          <mxGeometry relative="1" as="geometry">
            <Array as="points">
              <mxPoint x="645" y="957" />
              <mxPoint x="645" y="1446" />
            </Array>
          </mxGeometry>
        </mxCell>
        <mxCell id="7z2uK8pHWrHxvsxm8yLZ-148" style="edgeStyle=orthogonalEdgeStyle;rounded=0;orthogonalLoop=1;jettySize=auto;html=1;entryX=1;entryY=0.5;entryDx=0;entryDy=0;endArrow=ERoneToMany;endFill=0;startArrow=ERoneToMany;startFill=0;" parent="1" source="7z2uK8pHWrHxvsxm8yLZ-24" target="7z2uK8pHWrHxvsxm8yLZ-46" edge="1">
          <mxGeometry relative="1" as="geometry" />
        </mxCell>
        <mxCell id="7z2uK8pHWrHxvsxm8yLZ-149" value="" style="edgeStyle=elbowEdgeStyle;fontSize=12;html=1;endArrow=ERoneToMany;rounded=0;exitX=1.006;exitY=0.275;exitDx=0;exitDy=0;exitPerimeter=0;entryX=0;entryY=0.5;entryDx=0;entryDy=0;startArrow=ERone;startFill=0;" parent="1" source="7z2uK8pHWrHxvsxm8yLZ-2" target="7z2uK8pHWrHxvsxm8yLZ-49" edge="1">
          <mxGeometry width="100" height="100" relative="1" as="geometry">
            <mxPoint x="1084" y="1277" as="sourcePoint" />
            <mxPoint x="1184" y="1177" as="targetPoint" />
            <Array as="points">
              <mxPoint x="1213" y="1044" />
            </Array>
          </mxGeometry>
        </mxCell>
        <mxCell id="7z2uK8pHWrHxvsxm8yLZ-150" value="" style="edgeStyle=elbowEdgeStyle;fontSize=12;html=1;endArrow=ERoneToMany;rounded=0;exitX=0;exitY=0.5;exitDx=0;exitDy=0;entryX=0;entryY=0.5;entryDx=0;entryDy=0;startArrow=ERone;startFill=0;" parent="1" source="7z2uK8pHWrHxvsxm8yLZ-2" target="7z2uK8pHWrHxvsxm8yLZ-78" edge="1">
          <mxGeometry width="100" height="100" relative="1" as="geometry">
            <mxPoint x="779" y="1102" as="sourcePoint" />
            <mxPoint x="908" y="1260" as="targetPoint" />
            <Array as="points">
              <mxPoint x="891" y="1166" />
            </Array>
          </mxGeometry>
        </mxCell>
      </root>
    </mxGraphModel>
  </diagram>
</mxfile>
